<?xml version="1.0" standalone="no"?>
<!DOCTYPE svg PUBLIC "-//W3C//DTD SVG 20010904//EN"
 "http://www.w3.org/TR/2001/REC-SVG-20010904/DTD/svg10.dtd">
<svg version="1.0" xmlns="http://www.w3.org/2000/svg"
 width="625.000000pt" height="625.000000pt" viewBox="0 0 625.000000 625.000000"
 preserveAspectRatio="xMidYMid meet">
<metadata>
Created by potrace 1.15, written by Peter Selinger 2001-2017
</metadata>
<g transform="translate(0.000000,625.000000) scale(0.100000,-0.100000)"
fill="#000000" stroke="none">
<path d="M1408 5348 c-13 -11 -301 -1314 -639 -2896 -42 -197 -44 -234 -10
-252 16 -8 2369 -265 3657 -400 320 -33 345 -32 363 12 6 13 49 255 96 538 48
283 167 990 266 1570 99 580 178 1070 177 1089 -6 71 137 55 -1923 210 -1028
78 -1893 141 -1921 141 -27 0 -57 -6 -66 -12z m537 -443 c105 -8 231 -17 280
-20 98 -5 422 -30 1005 -75 206 -16 376 -28 378 -26 1 2 -7 29 -19 60 -11 32
-19 59 -17 62 3 2 81 -2 174 -10 93 -8 207 -17 254 -21 47 -3 249 -19 450 -35
201 -17 399 -32 440 -36 89 -6 153 -13 156 -17 1 -2 -96 -565 -246 -1427 -28
-162 -60 -344 -70 -405 -17 -95 -118 -674 -139 -790 l-7 -40 -23 63 c-23 61
-24 108 -4 190 4 16 1 22 -11 22 -9 0 -16 -3 -16 -7 0 -20 -40 -236 -44 -240
-6 -6 -364 34 -466 52 -41 7 -154 21 -250 31 -96 9 -176 18 -177 19 -4 2 43
254 48 259 2 2 63 -2 134 -10 72 -7 243 -25 380 -39 138 -14 265 -28 284 -31
27 -4 33 -3 28 10 -5 12 3 14 47 9 l54 -6 10 64 c29 166 35 210 28 216 -12 12
-18 -6 -38 -124 -11 -65 -22 -120 -24 -121 -1 -2 -61 2 -133 9 -102 10 -131
16 -131 27 0 41 43 257 52 263 7 4 6 18 -3 42 -10 29 -9 52 5 142 12 71 15
110 8 117 -13 13 -16 1 -38 -132 -10 -58 -19 -107 -20 -108 -6 -9 -264 22
-264 31 0 6 10 67 22 135 l21 125 79 -6 c56 -5 77 -3 72 4 -5 8 17 10 72 8
l78 -4 22 130 c12 72 20 133 17 138 -11 19 -21 -10 -38 -113 -11 -60 -22 -115
-26 -121 -5 -8 -28 -8 -89 0 -46 6 -105 11 -132 11 -42 0 -49 3 -44 18 3 9 12
59 22 111 13 73 14 101 6 129 -6 20 -8 39 -3 42 15 9 54 261 43 272 -13 13
-16 3 -40 -137 -17 -96 -18 -100 -42 -98 -197 12 -240 17 -240 27 1 6 11 65
23 131 l22 120 50 0 c28 0 52 3 55 7 3 4 80 1 170 -7 91 -8 269 -23 397 -35
127 -11 235 -20 241 -20 5 0 17 48 26 108 10 59 20 117 23 130 4 15 1 22 -10
22 -11 0 -19 -28 -32 -110 -10 -62 -23 -110 -29 -111 -20 -2 -29 -1 -631 56
-82 8 -171 16 -197 16 -27 1 -48 7 -48 12 0 6 5 38 11 72 8 50 8 69 -4 97 -14
33 -11 55 44 359 35 197 54 328 49 333 -6 6 -11 4 -14 -5 -5 -12 -216 -1160
-216 -1171 0 -5 -332 25 -460 42 -47 6 -485 48 -974 95 -488 46 -891 86 -894
89 -3 4 48 265 113 582 l119 575 50 -6 c28 -3 137 -12 241 -20z m-312 -1212
c117 -11 176 -20 174 -27 -3 -6 -15 -61 -27 -121 -13 -61 -24 -111 -25 -113
-3 -4 -397 37 -402 41 -3 4 33 198 42 225 6 16 25 15 238 -5z m407 -38 c85 -8
173 -17 196 -20 l40 -6 -24 -117 c-13 -64 -26 -119 -28 -121 -4 -4 -397 30
-403 35 -8 7 44 244 53 244 6 0 81 -7 166 -15z m719 -71 c2 -2 -1 -9 -6 -16
-6 -7 -19 -57 -29 -110 -9 -54 -21 -102 -24 -108 -5 -8 -66 -5 -200 9 -107 11
-198 17 -203 14 -6 -4 -8 4 -4 18 3 13 13 65 22 114 9 50 18 97 20 105 4 14
28 13 212 -4 115 -10 210 -21 212 -22z m316 -29 c87 -9 160 -17 161 -18 2 -3
-46 -241 -50 -244 -3 -4 -410 37 -414 42 -3 3 34 206 44 233 3 10 17 12 52 8
26 -3 119 -13 207 -21z m850 -80 c107 -9 155 -17 151 -24 -2 -3 -14 -60 -26
-126 -11 -66 -24 -123 -28 -126 -4 -4 -41 -3 -82 2 -41 5 -97 9 -123 10 -26 1
-49 5 -51 8 -2 3 4 49 14 101 9 52 20 112 24 133 6 32 10 36 29 33 12 -3 54
-8 92 -11z m-2184 -125 c-2 -8 -14 -62 -25 -120 -15 -74 -26 -106 -37 -108 -8
-1 -98 6 -200 17 -101 10 -187 17 -190 15 -6 -3 35 215 45 242 3 7 69 3 207
-11 169 -17 203 -23 200 -35z m314 -16 c88 -9 161 -17 163 -19 2 -2 -1 -12 -6
-22 -5 -10 -18 -65 -27 -121 l-18 -104 -41 6 c-23 3 -116 13 -207 22 l-166 17
25 124 25 124 46 -5 c25 -3 118 -13 206 -22z m445 -44 c107 -11 195 -20 197
-20 2 0 -1 -8 -7 -17 -5 -10 -19 -65 -30 -122 -11 -58 -21 -105 -23 -107 -2
-2 -401 38 -405 41 -1 1 8 57 20 124 18 92 27 121 38 121 9 0 103 -9 210 -20z
m493 -49 c98 -10 179 -20 181 -22 3 -4 -42 -240 -47 -245 -3 -3 -410 38 -415
41 -1 1 7 57 19 124 l23 121 30 0 c17 0 111 -9 209 -19z m921 -91 c55 -6 101
-12 102 -13 2 -3 -45 -260 -49 -264 -3 -3 -235 17 -254 22 -8 3 -9 15 -3 42 4
21 16 82 25 135 l17 96 32 -4 c17 -2 76 -9 130 -14z m-2451 -75 c238 -25 227
-23 217 -48 -5 -12 -32 -136 -60 -276 -27 -140 -52 -257 -55 -259 -5 -6 -337
27 -385 37 l-26 6 52 255 c29 140 56 265 59 278 7 27 10 27 198 7z m990 -104
c98 -10 180 -20 181 -22 5 -5 -41 -239 -48 -246 -4 -5 -417 35 -423 40 0 1 10
59 24 129 l26 126 31 -4 c17 -3 111 -13 209 -23z m1399 -142 c57 -6 104 -12
105 -13 4 -4 -45 -257 -51 -263 -3 -3 -31 -1 -63 5 -32 6 -89 14 -126 18 -67
6 -68 7 -63 33 3 14 13 67 21 116 9 50 18 96 20 103 5 15 26 15 157 1z m346
-35 c63 -5 82 -10 78 -20 -3 -8 -15 -69 -27 -136 -12 -68 -22 -124 -23 -125
-3 -3 -259 27 -263 30 -3 4 35 236 43 256 3 10 17 12 57 8 28 -4 89 -9 135
-13z m-978 -31 c1 -17 1 -17 10 -1 6 10 22 16 39 16 26 -1 28 -3 15 -15 -8 -8
-12 -19 -9 -24 10 -15 23 -10 30 11 5 17 14 20 51 18 25 -1 40 -4 33 -8 -7 -5
-8 -10 -1 -14 6 -3 13 -2 16 3 9 13 69 11 78 -3 5 -7 8 -7 8 -1 0 6 14 9 33 7
26 -3 33 -9 35 -28 1 -20 -3 -24 -28 -24 -17 0 -30 5 -30 11 0 8 -5 8 -15 -1
-8 -7 -15 -9 -15 -4 0 5 -41 10 -91 11 -51 2 -97 6 -103 11 -6 4 -23 7 -38 6
-16 0 -28 3 -28 7 0 5 -7 6 -16 2 -14 -5 -15 -3 -5 15 14 26 31 29 31 5z
m-845 -108 c88 -9 169 -18 181 -20 l21 -5 -24 -122 c-13 -67 -26 -124 -28
-127 -5 -4 -417 38 -423 43 -1 2 9 58 23 126 14 67 25 125 25 127 0 3 15 3 33
0 17 -3 104 -13 192 -22z"/>
<path d="M4050 4723 c0 -3 -23 -129 -50 -280 -28 -152 -49 -277 -48 -278 4 -4
851 -75 853 -72 6 6 97 559 93 562 -2 3 -177 18 -389 35 -211 16 -401 31 -421
34 -21 2 -38 2 -38 -1z m168 -205 c24 -24 14 -69 -24 -104 l-35 -34 30 0 c33
0 34 -1 25 -24 -5 -12 -21 -16 -65 -16 -83 0 -87 17 -19 79 58 51 61 78 9 67
-23 -4 -29 -2 -29 13 0 10 3 21 7 24 11 12 88 8 101 -5z m376 -34 c20 -19 20
-34 1 -61 -10 -14 -12 -24 -5 -28 17 -10 11 -44 -11 -66 -28 -28 -114 -24
-114 6 0 17 6 20 38 17 32 -3 37 -1 37 17 0 14 -6 21 -20 21 -13 0 -20 7 -20
20 0 15 7 20 25 20 16 0 25 6 25 15 0 10 -10 15 -30 15 -23 0 -30 4 -30 20 0
17 7 20 44 20 27 0 51 -6 60 -16z m156 -14 c51 -51 -3 -180 -75 -180 -29 0
-55 38 -55 80 0 95 76 154 130 100z"/>
<path d="M4905 4558 c-9 -51 -31 -180 -49 -286 -18 -106 -35 -194 -37 -196 -2
-2 -47 0 -99 5 -89 9 -761 69 -767 69 -2 0 -3 -6 -3 -13 0 -10 39 -17 153 -26
382 -30 636 -51 685 -56 28 -3 52 -2 52 2 0 3 23 136 50 294 56 325 53 299 41
299 -5 0 -17 -42 -26 -92z"/>
<path d="M5304 4322 l-40 -3 -145 -847 -144 -847 3 -214 c1 -118 4 -217 7
-219 9 -9 56 41 76 80 10 21 19 55 19 76 l0 39 124 -5 c124 -5 124 -5 140 21
16 23 15 30 -5 112 -15 61 -25 83 -31 73 -7 -9 -8 -7 -3 7 3 11 33 99 65 195
102 307 180 664 199 911 10 131 2 417 -15 562 -7 55 -8 58 -33 55 -22 -2 -28
-11 -40 -51 -14 -46 -16 -48 -49 -45 -29 3 -37 10 -60 53 -26 49 -28 50 -68
47z m-26 -771 c12 -7 12 -22 2 -85 l-13 -76 -48 0 c-34 0 -49 4 -49 13 0 16
19 127 25 145 5 14 63 16 83 3z"/>
<path d="M1490 2084 c1 -11 11 -73 23 -139 l22 -120 1325 -147 c728 -81 1326
-145 1328 -144 2 2 -4 34 -13 70 -23 100 -17 103 11 6 28 -102 31 -173 6 -220
-24 -48 -277 -375 -309 -400 -16 -13 -41 -20 -67 -20 -66 0 -2627 276 -2656
286 -10 4 -12 2 -5 -5 12 -12 286 -44 1703 -196 838 -90 987 -104 1010 -93 50
25 337 364 386 458 33 62 116 353 104 365 -4 5 -76 14 -213 29 -626 66 -2582
278 -2612 282 -38 5 -43 4 -43 -12z"/>
</g>
</svg>
